# MagicaVoxel @ ephtracy

# material
mtllib player.mtl
usemtl palette

# normals
vn -1 0 0
vn 1 0 0
vn 0 0 1
vn 0 0 -1
vn 0 -1 0
vn 0 1 0

# texcoords
vt 0.0292969 0.5
vt 0.794922 0.5

# verts
v -3 4 1.5
v -3 4 0.5
v -3 4 -1.5
v -3 5 1.5
v -3 5 0.5
v -3 5 -0.5
v -3 5 -1.5
v -3 6 -0.5
v -3 6 -1.5
v -2 0 0.5
v -2 0 -1.5
v -2 1 0.5
v -2 1 -0.5
v -2 1 -1.5
v -2 2 -0.5
v -2 2 -1.5
v -2 3 -0.5
v -2 3 -1.5
v -2 4 -0.5
v -2 4 -1.5
v -1 6 -0.5
v -1 6 -1.5
v -1 7 -0.5
v -1 7 -1.5
v -1 8 -0.5
v -1 8 -1.5
v 1 0 0.5
v 1 0 -1.5
v 1 1 0.5
v 1 1 -0.5
v 1 1 -1.5
v 1 2 -0.5
v 1 2 -1.5
v 2 4 1.5
v 2 4 0.5
v 2 4 -0.5
v 2 5 1.5
v 2 5 0.5
v 2 5 -0.5
v -2 4 1.5
v -2 4 0.5
v -2 4 -0.5
v -2 5 1.5
v -2 5 0.5
v -2 5 -0.5
v -1 0 0.5
v -1 0 -1.5
v -1 1 0.5
v -1 1 -0.5
v -1 1 -1.5
v -1 2 -0.5
v -1 2 -1.5
v 1 6 -0.5
v 1 6 -1.5
v 1 7 -0.5
v 1 7 -1.5
v 1 8 -0.5
v 1 8 -1.5
v 2 0 0.5
v 2 0 -1.5
v 2 1 0.5
v 2 1 -0.5
v 2 1 -1.5
v 2 2 -0.5
v 2 2 -1.5
v 2 3 -0.5
v 2 3 -1.5
v 2 4 -0.5
v 2 4 -1.5
v 3 4 1.5
v 3 4 0.5
v 3 4 -1.5
v 3 5 1.5
v 3 5 0.5
v 3 5 -0.5
v 3 5 -1.5
v 3 6 -0.5
v 3 6 -1.5
v -3 4 1.5
v -3 5 1.5
v -2 4 1.5
v -2 5 1.5
v 2 4 1.5
v 2 5 1.5
v 3 4 1.5
v 3 5 1.5
v -2 0 0.5
v -2 1 0.5
v -1 0 0.5
v -1 1 0.5
v 1 0 0.5
v 1 1 0.5
v 2 0 0.5
v 2 1 0.5
v -3 5 -0.5
v -3 6 -0.5
v -2 1 -0.5
v -2 2 -0.5
v -2 3 -0.5
v -2 4 -0.5
v -2 5 -0.5
v -2 6 -0.5
v -1 1 -0.5
v -1 2 -0.5
v -1 4 -0.5
v -1 6 -0.5
v -1 7 -0.5
v -1 8 -0.5
v 1 1 -0.5
v 1 2 -0.5
v 1 4 -0.5
v 1 6 -0.5
v 1 7 -0.5
v 1 8 -0.5
v 2 1 -0.5
v 2 2 -0.5
v 2 3 -0.5
v 2 4 -0.5
v 2 5 -0.5
v 2 6 -0.5
v 3 5 -0.5
v 3 6 -0.5
v -3 4 -1.5
v -3 5 -1.5
v -3 6 -1.5
v -2 0 -1.5
v -2 1 -1.5
v -2 2 -1.5
v -2 3 -1.5
v -2 4 -1.5
v -2 5 -1.5
v -2 6 -1.5
v -1 0 -1.5
v -1 1 -1.5
v -1 2 -1.5
v -1 4 -1.5
v -1 6 -1.5
v -1 7 -1.5
v -1 8 -1.5
v 1 0 -1.5
v 1 1 -1.5
v 1 2 -1.5
v 1 4 -1.5
v 1 6 -1.5
v 1 7 -1.5
v 1 8 -1.5
v 2 0 -1.5
v 2 1 -1.5
v 2 2 -1.5
v 2 3 -1.5
v 2 4 -1.5
v 2 5 -1.5
v 2 6 -1.5
v 3 4 -1.5
v 3 5 -1.5
v 3 6 -1.5
v -2 0 0.5
v -1 0 0.5
v 1 0 0.5
v 2 0 0.5
v -2 0 -1.5
v -1 0 -1.5
v 1 0 -1.5
v 2 0 -1.5
v -1 2 -0.5
v 1 2 -0.5
v -1 2 -1.5
v 1 2 -1.5
v -3 4 1.5
v -2 4 1.5
v 2 4 1.5
v 3 4 1.5
v -3 4 0.5
v -2 4 0.5
v 2 4 0.5
v 3 4 0.5
v -2 4 -0.5
v 2 4 -0.5
v -3 4 -1.5
v -2 4 -1.5
v 2 4 -1.5
v 3 4 -1.5
v -2 1 0.5
v -1 1 0.5
v 1 1 0.5
v 2 1 0.5
v -2 1 -0.5
v -1 1 -0.5
v 1 1 -0.5
v 2 1 -0.5
v -3 5 1.5
v -2 5 1.5
v 2 5 1.5
v 3 5 1.5
v -3 5 0.5
v -2 5 0.5
v 2 5 0.5
v 3 5 0.5
v -3 5 -0.5
v -2 5 -0.5
v 2 5 -0.5
v 3 5 -0.5
v -3 6 -0.5
v -2 6 -0.5
v -1 6 -0.5
v 1 6 -0.5
v 2 6 -0.5
v 3 6 -0.5
v -3 6 -1.5
v -2 6 -1.5
v -1 6 -1.5
v 1 6 -1.5
v 2 6 -1.5
v 3 6 -1.5
v -1 8 -0.5
v 1 8 -0.5
v -1 8 -1.5
v 1 8 -1.5

# faces
f 4/2/1 2/2/1 1/2/1
f 5/1/1 3/1/1 2/1/1
f 5/2/1 2/2/1 4/2/1
f 6/1/1 3/1/1 5/1/1
f 7/1/1 3/1/1 6/1/1
f 8/2/1 7/2/1 6/2/1
f 9/2/1 7/2/1 8/2/1
f 12/2/1 11/2/1 10/2/1
f 13/2/1 11/2/1 12/2/1
f 14/2/1 11/2/1 13/2/1
f 15/1/1 14/1/1 13/1/1
f 16/1/1 14/1/1 15/1/1
f 17/2/1 16/2/1 15/2/1
f 18/2/1 16/2/1 17/2/1
f 19/1/1 18/1/1 17/1/1
f 20/1/1 18/1/1 19/1/1
f 23/1/1 22/1/1 21/1/1
f 24/1/1 22/1/1 23/1/1
f 25/2/1 24/2/1 23/2/1
f 26/2/1 24/2/1 25/2/1
f 29/2/1 28/2/1 27/2/1
f 30/2/1 28/2/1 29/2/1
f 31/2/1 28/2/1 30/2/1
f 32/1/1 31/1/1 30/1/1
f 33/1/1 31/1/1 32/1/1
f 37/2/1 35/2/1 34/2/1
f 38/1/1 36/1/1 35/1/1
f 38/2/1 35/2/1 37/2/1
f 39/1/1 36/1/1 38/1/1
f 40/2/2 41/2/2 43/2/2
f 41/1/2 42/1/2 44/1/2
f 43/2/2 41/2/2 44/2/2
f 44/1/2 42/1/2 45/1/2
f 46/2/2 47/2/2 48/2/2
f 48/2/2 47/2/2 49/2/2
f 49/2/2 47/2/2 50/2/2
f 49/1/2 50/1/2 51/1/2
f 51/1/2 50/1/2 52/1/2
f 53/1/2 54/1/2 55/1/2
f 55/1/2 54/1/2 56/1/2
f 55/2/2 56/2/2 57/2/2
f 57/2/2 56/2/2 58/2/2
f 59/2/2 60/2/2 61/2/2
f 61/2/2 60/2/2 62/2/2
f 62/2/2 60/2/2 63/2/2
f 62/1/2 63/1/2 64/1/2
f 64/1/2 63/1/2 65/1/2
f 64/2/2 65/2/2 66/2/2
f 66/2/2 65/2/2 67/2/2
f 66/1/2 67/1/2 68/1/2
f 68/1/2 67/1/2 69/1/2
f 70/2/2 71/2/2 73/2/2
f 71/1/2 72/1/2 74/1/2
f 73/2/2 71/2/2 74/2/2
f 74/1/2 72/1/2 75/1/2
f 75/1/2 72/1/2 76/1/2
f 75/2/2 76/2/2 77/2/2
f 77/2/2 76/2/2 78/2/2
f 81/2/3 80/2/3 79/2/3
f 82/2/3 80/2/3 81/2/3
f 85/2/3 84/2/3 83/2/3
f 86/2/3 84/2/3 85/2/3
f 89/2/3 88/2/3 87/2/3
f 90/2/3 88/2/3 89/2/3
f 93/2/3 92/2/3 91/2/3
f 94/2/3 92/2/3 93/2/3
f 101/2/3 96/2/3 95/2/3
f 102/2/3 96/2/3 101/2/3
f 103/1/3 98/1/3 97/1/3
f 104/2/3 99/2/3 98/2/3
f 104/1/3 98/1/3 103/1/3
f 105/1/3 100/1/3 99/1/3
f 105/1/3 101/1/3 100/1/3
f 105/1/3 102/1/3 101/1/3
f 106/1/3 102/1/3 105/1/3
f 110/2/3 99/2/3 104/2/3
f 111/2/3 106/2/3 105/2/3
f 111/1/3 105/1/3 99/1/3
f 112/1/3 107/1/3 106/1/3
f 112/2/3 106/2/3 111/2/3
f 113/2/3 108/2/3 107/2/3
f 113/1/3 107/1/3 112/1/3
f 114/2/3 108/2/3 113/2/3
f 115/1/3 110/1/3 109/1/3
f 116/2/3 99/2/3 110/2/3
f 116/1/3 110/1/3 115/1/3
f 117/1/3 111/1/3 99/1/3
f 117/2/3 99/2/3 116/2/3
f 117/1/3 112/1/3 111/1/3
f 118/1/3 112/1/3 117/1/3
f 119/1/3 112/1/3 118/1/3
f 120/1/3 112/1/3 119/1/3
f 121/2/3 120/2/3 119/2/3
f 122/2/3 120/2/3 121/2/3
f 123/1/4 124/1/4 130/1/4
f 124/2/4 125/2/4 131/2/4
f 130/1/4 124/1/4 131/1/4
f 131/2/4 125/2/4 132/2/4
f 126/2/4 127/2/4 133/2/4
f 127/1/4 128/1/4 134/1/4
f 133/2/4 127/2/4 134/2/4
f 128/2/4 129/2/4 135/2/4
f 134/1/4 128/1/4 135/1/4
f 129/1/4 130/1/4 136/1/4
f 130/1/4 131/1/4 136/1/4
f 131/1/4 132/1/4 136/1/4
f 136/1/4 132/1/4 137/1/4
f 135/2/4 129/2/4 142/2/4
f 136/2/4 137/2/4 143/2/4
f 129/1/4 136/1/4 143/1/4
f 137/1/4 138/1/4 144/1/4
f 143/2/4 137/2/4 144/2/4
f 138/2/4 139/2/4 145/2/4
f 144/1/4 138/1/4 145/1/4
f 145/2/4 139/2/4 146/2/4
f 140/2/4 141/2/4 147/2/4
f 141/1/4 142/1/4 148/1/4
f 147/2/4 141/2/4 148/2/4
f 142/2/4 129/2/4 149/2/4
f 148/1/4 142/1/4 149/1/4
f 143/1/4 144/1/4 150/1/4
f 149/2/4 129/2/4 150/2/4
f 129/1/4 143/1/4 150/1/4
f 150/1/4 144/1/4 151/1/4
f 151/1/4 144/1/4 152/1/4
f 152/1/4 144/1/4 153/1/4
f 151/1/4 152/1/4 154/1/4
f 152/2/4 153/2/4 155/2/4
f 154/1/4 152/1/4 155/1/4
f 155/2/4 153/2/4 156/2/4
f 161/2/5 158/2/5 157/2/5
f 162/2/5 158/2/5 161/2/5
f 163/2/5 160/2/5 159/2/5
f 164/2/5 160/2/5 163/2/5
f 167/2/5 166/2/5 165/2/5
f 168/2/5 166/2/5 167/2/5
f 173/2/5 170/2/5 169/2/5
f 174/2/5 170/2/5 173/2/5
f 175/2/5 172/2/5 171/2/5
f 176/2/5 172/2/5 175/2/5
f 177/1/5 174/1/5 173/1/5
f 178/1/5 176/1/5 175/1/5
f 179/1/5 177/1/5 173/1/5
f 180/1/5 177/1/5 179/1/5
f 181/1/5 176/1/5 178/1/5
f 182/1/5 176/1/5 181/1/5
f 183/2/6 184/2/6 187/2/6
f 187/2/6 184/2/6 188/2/6
f 185/2/6 186/2/6 189/2/6
f 189/2/6 186/2/6 190/2/6
f 191/2/6 192/2/6 195/2/6
f 195/2/6 192/2/6 196/2/6
f 193/2/6 194/2/6 197/2/6
f 197/2/6 194/2/6 198/2/6
f 195/1/6 196/1/6 199/1/6
f 199/1/6 196/1/6 200/1/6
f 197/1/6 198/1/6 201/1/6
f 201/1/6 198/1/6 202/1/6
f 203/2/6 204/2/6 209/2/6
f 204/1/6 205/1/6 210/1/6
f 209/2/6 204/2/6 210/2/6
f 210/1/6 205/1/6 211/1/6
f 206/1/6 207/1/6 212/1/6
f 207/2/6 208/2/6 213/2/6
f 212/1/6 207/1/6 213/1/6
f 213/2/6 208/2/6 214/2/6
f 215/2/6 216/2/6 217/2/6
f 217/2/6 216/2/6 218/2/6
